<?xml version="1.0" encoding="UTF-8"?>
<svg width="576px" height="960px" viewBox="0 0 576 960" version="1.1" xmlns="http://www.w3.org/2000/svg" xmlns:xlink="http://www.w3.org/1999/xlink">
    <!-- Generator: Sketch 50.2 (55047) - http://www.bohemiancoding.com/sketch -->
    <title>Blue Husky Software Structure</title>
    <desc>Created with Sketch.</desc>
    <defs>
        <linearGradient x1="50%" y1="-2.48949813e-15%" x2="50%" y2="100%" id="linearGradient-1">
            <stop stop-color="#FFCCBC" offset="0%"></stop>
            <stop stop-color="#FFCCBC" stop-opacity="0" offset="100%"></stop>
        </linearGradient>
        <linearGradient x1="50%" y1="0%" x2="50%" y2="100%" id="linearGradient-2">
            <stop stop-color="#F4511E" offset="0%"></stop>
            <stop stop-color="#F4511E" stop-opacity="0" offset="100%"></stop>
        </linearGradient>
        <linearGradient x1="50%" y1="-2.48949813e-15%" x2="50%" y2="100%" id="linearGradient-3">
            <stop stop-color="#B2EBF2" offset="0%"></stop>
            <stop stop-color="#B2EBF2" stop-opacity="0" offset="100%"></stop>
        </linearGradient>
        <linearGradient x1="50%" y1="-2.48949813e-15%" x2="50%" y2="100%" id="linearGradient-4">
            <stop stop-color="#00ACC1" offset="0%"></stop>
            <stop stop-color="#00ACC1" stop-opacity="0" offset="100%"></stop>
        </linearGradient>
    </defs>
    <g id="Blue-Husky-Software-Structure" stroke="none" stroke-width="1" fill="none" fill-rule="evenodd">
        <rect id="Background" fill="#FFFFFF" x="0" y="0" width="576" height="960" rx="4"></rect>
        <g id="Chart" transform="translate(4.000000, 19.000000)">
            <g id="Discouraged-Ancillary-Logic" transform="translate(0.000000, 261.000000)">
                <rect id="Rectangle-2" stroke="#546E7A" fill="#CFD8DC" x="0.5" y="0.5" width="251" height="23" rx="11.5"></rect>
                <text id="Discouraged-Ancillar" font-family="FiraCode-Retina, Fira Code" font-size="11" font-weight="500" fill="#263238">
                    <tspan x="59" y="15">Discouraged Ancillary Logic</tspan>
                </text>
            </g>
            <g id="UI" transform="translate(11.000000, 0.000000)">
                <g id="UIWindow" transform="translate(305.000000, 45.000000)">
                    <rect id="Rectangle" stroke="#5E35B1" fill="#D1C4E9" x="0.5" y="0.5" width="191" height="187" rx="4"></rect>
                    <text font-family="FiraCode-Retina, Fira Code" font-size="12" font-weight="500" fill="#263238">
                        <tspan x="8" y="19">UIWindow</tspan>
                    </text>
                    <g id="Group" transform="translate(4.000000, 28.000000)">
                        <rect id="Rectangle-Copy" stroke="#FDD835" fill="#FFF9C4" x="0.5" y="0.5" width="183" height="155" rx="4"></rect>
                        <text id="contentView:-UIView" font-family="FiraCode-Retina, Fira Code" font-size="12" font-weight="500" fill="#263238">
                            <tspan x="8" y="19">contentView: UIView</tspan>
                        </text>
                        <g id="Group-Copy" transform="translate(4.000000, 28.000000)">
                            <rect id="Rectangle-Copy" stroke="#FDD835" fill="#FFF9C4" x="0.5" y="0.5" width="175" height="27" rx="4"></rect>
                            <text id="UIView" font-family="FiraCode-Retina, Fira Code" font-size="12" font-weight="500" fill="#263238">
                                <tspan x="8" y="19">UIView</tspan>
                            </text>
                        </g>
                        <g id="Group-Copy-2" transform="translate(4.000000, 60.000000)">
                            <rect id="Rectangle-Copy" stroke="#FDD835" fill="#FFF9C4" x="0.5" y="0.5" width="175" height="27" rx="4"></rect>
                            <text id="UIView" font-family="FiraCode-Retina, Fira Code" font-size="12" font-weight="500" fill="#263238">
                                <tspan x="8" y="19">UIView</tspan>
                            </text>
                        </g>
                        <g id="Group-Copy-3" transform="translate(4.000000, 92.000000)">
                            <rect id="Rectangle-Copy" stroke="#FDD835" fill="#FFF9C4" x="0.5" y="0.5" width="175" height="27" rx="4"></rect>
                            <text id="UIView" font-family="FiraCode-Retina, Fira Code" font-size="12" font-weight="500" fill="#263238">
                                <tspan x="8" y="19">UIView</tspan>
                            </text>
                        </g>
                        <g id="Group-Copy-4" transform="translate(4.000000, 124.000000)">
                            <rect id="Rectangle-Copy" stroke="#FDD835" fill="#FFF9C4" x="0.5" y="0.5" width="175" height="27" rx="4"></rect>
                            <text id="UIView" font-family="FiraCode-Retina, Fira Code" font-size="12" font-weight="500" fill="#263238">
                                <tspan x="8" y="19">UIView</tspan>
                            </text>
                        </g>
                    </g>
                </g>
                <g id="Curved-Arrow" transform="translate(205.000000, 13.000000)" stroke="#263238" stroke-linecap="round" stroke-linejoin="round">
                    <g id="Curved-Line">
                        <path d="M0,33 C14.3090919,11 37.6461017,-2.61172449e-15 70.0110294,-3.55271368e-15 C102.375957,-3.55271368e-15 125.372281,10.8307692 139,32.4923077" id="Line-2"></path>
                    </g>
                    <path d="M135.805432,20.6179343 L140.499145,34.6990732 L131.111719,34.6990732 L135.805432,20.6179343 Z" id="Triangle" fill="#263238" fill-rule="evenodd" transform="translate(135.805432, 28.199073) scale(-1, 1) rotate(-143.000000) translate(-135.805432, -28.199073) "></path>
                </g>
                <g id="Straight-Arrow" transform="translate(236.000000, 77.000000)" stroke="#263238" stroke-linecap="round" stroke-linejoin="round">
                    <g id="Group-9">
                        <path d="M0,4 L74,4" id="Line"></path>
                        <g id="Arrowhead" transform="translate(63.000000, 0.000000)" fill="#263238">
                            <path d="M-1.58113883,4 L12.5,-0.693712943 L12.5,8.69371294 L-1.58113883,4 Z" id="Triangle-Copy" transform="translate(6.000000, 4.000000) scale(-1, 1) rotate(-360.000000) translate(-6.000000, -4.000000) "></path>
                        </g>
                    </g>
                </g>
                <g id="Straight-Arrow" transform="translate(232.000000, 117.000000)" stroke="#263238" stroke-linecap="round" stroke-linejoin="round">
                    <g id="Group-9">
                        <path d="M0,4 L81.8933333,4" id="Line"></path>
                        <g id="Arrowhead" transform="translate(71.000000, 0.000000)" fill="#263238">
                            <path d="M-1.58113883,4 L12.5,-0.693712943 L12.5,8.69371294 L-1.58113883,4 Z" id="Triangle-Copy" transform="translate(6.000000, 4.000000) scale(-1, 1) rotate(-360.000000) translate(-6.000000, -4.000000) "></path>
                        </g>
                    </g>
                </g>
                <g id="Straight-Arrow" transform="translate(232.000000, 149.000000)" stroke="#263238" stroke-linecap="round" stroke-linejoin="round">
                    <g id="Group-9">
                        <path d="M0,4 L81.8933333,4" id="Line"></path>
                        <g id="Arrowhead" transform="translate(71.000000, 0.000000)" fill="#263238">
                            <path d="M-1.58113883,4 L12.5,-0.693712943 L12.5,8.69371294 L-1.58113883,4 Z" id="Triangle-Copy" transform="translate(6.000000, 4.000000) scale(-1, 1) rotate(-360.000000) translate(-6.000000, -4.000000) "></path>
                        </g>
                    </g>
                </g>
                <g id="Straight-Arrow" transform="translate(232.000000, 181.000000)" stroke="#263238" stroke-linecap="round" stroke-linejoin="round">
                    <g id="Group-9">
                        <path d="M0,4 L81.8933333,4" id="Line"></path>
                        <g id="Arrowhead" transform="translate(71.000000, 0.000000)" fill="#263238">
                            <path d="M-1.58113883,4 L12.5,-0.693712943 L12.5,8.69371294 L-1.58113883,4 Z" id="Triangle-Copy" transform="translate(6.000000, 4.000000) scale(-1, 1) rotate(-360.000000) translate(-6.000000, -4.000000) "></path>
                        </g>
                    </g>
                </g>
                <g id="Straight-Arrow" transform="translate(232.000000, 213.000000)" stroke="#263238" stroke-linecap="round" stroke-linejoin="round">
                    <g id="Group-9">
                        <path d="M0,4 L81.8933333,4" id="Line"></path>
                        <g id="Arrowhead" transform="translate(71.000000, 0.000000)" fill="#263238">
                            <path d="M-1.58113883,4 L12.5,-0.693712943 L12.5,8.69371294 L-1.58113883,4 Z" id="Triangle-Copy" transform="translate(6.000000, 4.000000) scale(-1, 1) rotate(-360.000000) translate(-6.000000, -4.000000) "></path>
                        </g>
                    </g>
                </g>
                <text id="Controls" font-family="Roboto-Regular, Roboto" font-size="11" font-weight="normal" fill="#263238">
                    <tspan x="252" y="10">Controls</tspan>
                </text>
                <text id="Controls-Copy" font-family="Roboto-Regular, Roboto" font-size="11" font-weight="normal" fill="#263238">
                    <tspan x="252" y="70">Controls</tspan>
                </text>
                <text id="Controls-Copy-2" font-family="Roboto-Regular, Roboto" font-size="11" font-weight="normal" fill="#263238">
                    <tspan x="252" y="118">Controls</tspan>
                </text>
                <text id="Controls-Copy-3" font-family="Roboto-Regular, Roboto" font-size="11" font-weight="normal" fill="#263238">
                    <tspan x="252" y="150">Controls</tspan>
                </text>
                <text id="Controls-Copy-4" font-family="Roboto-Regular, Roboto" font-size="11" font-weight="normal" fill="#263238">
                    <tspan x="252" y="182">Controls</tspan>
                </text>
                <text id="Controls-Copy-5" font-family="Roboto-Regular, Roboto" font-size="11" font-weight="normal" fill="#263238">
                    <tspan x="252" y="214">Controls</tspan>
                </text>
                <g id="UIWindowController" transform="translate(49.000000, 45.000000)">
                    <rect id="Rectangle-Copy-2" stroke="#5E35B1" fill-opacity="0.5" fill="#EA80FC" x="0.5" y="0.5" width="191" height="199" rx="4"></rect>
                    <text font-family="FiraCode-Retina, Fira Code" font-size="12" font-weight="500" fill="#263238">
                        <tspan x="8" y="19">UIWindowController</tspan>
                    </text>
                    <g id="Group" transform="translate(4.000000, 28.000000)">
                        <rect id="Rectangle-Copy" stroke="#FDD835" fill="#FFFFB2" x="0.5" y="0.5" width="183" height="167" rx="4"></rect>
                        <text id="contentViewControlle" font-family="FiraCode-Retina, Fira Code" font-size="12" font-weight="500" fill="#263238">
                            <tspan x="7" y="19">contentViewController:</tspan>
                            <tspan x="7" y="33">UIViewController</tspan>
                        </text>
                        <g id="Group-Copy" transform="translate(4.000000, 40.000000)">
                            <rect id="Rectangle-Copy" stroke="#FDD835" fill="#FFFFB2" x="0.5" y="0.5" width="175" height="27" rx="4"></rect>
                            <text id="UIViewController" font-family="FiraCode-Retina, Fira Code" font-size="12" font-weight="500" fill="#263238">
                                <tspan x="8" y="19">UIViewController</tspan>
                            </text>
                        </g>
                        <g id="Group-Copy-5" transform="translate(4.000000, 72.000000)">
                            <rect id="Rectangle-Copy" stroke="#FDD835" fill="#FFFFB2" x="0.5" y="0.5" width="175" height="27" rx="4"></rect>
                            <text id="UIViewController" font-family="FiraCode-Retina, Fira Code" font-size="12" font-weight="500" fill="#263238">
                                <tspan x="8" y="19">UIViewController</tspan>
                            </text>
                        </g>
                        <g id="Group-Copy-7" transform="translate(4.000000, 104.000000)">
                            <rect id="Rectangle-Copy" stroke="#FDD835" fill="#FFFFB2" x="0.5" y="0.5" width="175" height="27" rx="4"></rect>
                            <text id="UIViewController" font-family="FiraCode-Retina, Fira Code" font-size="12" font-weight="500" fill="#263238">
                                <tspan x="8" y="19">UIViewController</tspan>
                            </text>
                        </g>
                        <g id="Group-Copy-6" transform="translate(4.000000, 136.000000)">
                            <rect id="Rectangle-Copy" stroke="#FDD835" fill="#FFFFB2" x="0.5" y="0.5" width="175" height="27" rx="4"></rect>
                            <text id="UIViewController" font-family="FiraCode-Retina, Fira Code" font-size="12" font-weight="500" fill="#263238">
                                <tspan x="8" y="19">UIViewController</tspan>
                            </text>
                        </g>
                    </g>
                </g>
                <g id="Curved-Arrow" transform="translate(47.000000, 269.000000) scale(-1, 1) rotate(-270.000000) translate(-47.000000, -269.000000) translate(11.000000, 259.000000)" stroke="#263238" stroke-linecap="round" stroke-linejoin="round">
                    <g id="Curved-Line">
                        <path d="M0,20 C7.30896062,6.66666667 19.2293038,-2.9824172e-15 35.7610294,-3.55271368e-15 C52.2927551,-3.55271368e-15 64.0390786,6.56410256 71,19.6923077" id="Line-2"></path>
                    </g>
                    <path d="M67.8054322,7.61793432 L72.4991451,21.6990732 L63.1117192,21.6990732 L67.8054322,7.61793432 Z" id="Triangle" fill="#263238" fill-rule="evenodd" transform="translate(67.805432, 15.199073) scale(-1, 1) rotate(-143.000000) translate(-67.805432, -15.199073) "></path>
                </g>
                <g id="Curved-Arrow" transform="translate(29.770264, 255.500000) scale(-1, 1) rotate(-270.000000) translate(-29.770264, -255.500000) translate(-88.729736, 228.270264)" stroke="#263238" stroke-linecap="round" stroke-linejoin="round">
                    <g id="Curved-Line">
                        <path d="M0,54 C24.1916302,18 63.6462871,-2.01291319e-15 118.363971,-3.55271368e-15 C173.081654,-3.55271368e-15 211.960331,17.7230769 235,53.1692308" id="Line-2"></path>
                    </g>
                    <path d="M232.805432,41.6179343 L237.499145,55.6990732 L228.111719,55.6990732 L232.805432,41.6179343 Z" id="Triangle" fill="#263238" fill-rule="evenodd" transform="translate(232.805432, 49.199073) scale(-1, 1) rotate(-143.000000) translate(-232.805432, -49.199073) "></path>
                </g>
                <g id="Curved-Line" transform="translate(43.000000, 253.000000) scale(-1, 1) rotate(-270.000000) translate(-43.000000, -253.000000) translate(-9.000000, 239.000000)" stroke="#263238" stroke-linecap="round" stroke-linejoin="round">
                    <path d="M0,28 C10.7060832,9.33333333 28.1668675,-2.75429861e-15 52.3823529,-3.55271368e-15 C76.5978384,-3.55271368e-15 93.8037208,9.18974359 104,27.5692308" id="Line-2"></path>
                </g>
                <g id="Curved-Line" transform="translate(37.000000, 237.000000) scale(-1, 1) rotate(-270.000000) translate(-37.000000, -237.000000) translate(-31.000000, 217.000000)" stroke="#263238" stroke-linecap="round" stroke-linejoin="round">
                    <path d="M0,40 C14.0002626,13.3333333 36.8335959,-2.41212073e-15 68.5,-3.55271368e-15 C100.166404,-3.55271368e-15 122.666404,13.1282051 136,39.3846154" id="Line-2"></path>
                </g>
                <text id="Reads" transform="translate(13.379165, 172.673394) rotate(300.000000) translate(-13.379165, -172.673394) " font-family="Roboto-Regular, Roboto" font-size="11" font-weight="normal" fill="#263238">
                    <tspan x="-2.12083488" y="176.173394">Reads</tspan>
                </text>
            </g>
            <g id="Data-View-(Controller)" transform="translate(68.000000, 261.000000)">
                <g id="Group-7" transform="translate(220.000000, 36.000000) scale(-1, 1) translate(-220.000000, -36.000000) ">
                    <g id="Group-5" transform="translate(96.000000, 56.000000) scale(-1, 1) translate(-96.000000, -56.000000) translate(0.000000, 40.000000)">
                        <rect id="Rectangle-Copy-3" stroke="#3949AB" fill-opacity="0.5" fill="#8C9EFF" x="0.5" y="0.5" width="191" height="31" rx="4"></rect>
                        <text id="DataViewController" font-family="FiraCode-Retina, Fira Code" font-size="12" font-weight="500" fill="#263238">
                            <tspan x="8" y="19">DataViewController</tspan>
                        </text>
                    </g>
                    <g id="Group-6" transform="translate(348.000000, 56.000000) scale(-1, 1) translate(-348.000000, -56.000000) translate(256.000000, 40.000000)">
                        <rect id="Rectangle-Copy-4" stroke="#3949AB" fill="#C5CAE9" x="0.5" y="0.5" width="183" height="31" rx="4"></rect>
                        <text id="DataView" font-family="FiraCode-Retina, Fira Code" font-size="12" font-weight="500" fill="#263238">
                            <tspan x="8" y="19">DataView</tspan>
                        </text>
                    </g>
                    <g id="Curved-Arrow" transform="translate(183.000000, 16.000000)" stroke="#263238" stroke-linecap="round" stroke-linejoin="round">
                        <g id="Curved-Line">
                            <path d="M0,25 C8.64722102,8.33333333 22.7501622,-2.83984308e-15 42.3088235,-3.55271368e-15 C61.8674849,-3.55271368e-15 75.7645437,8.20512821 84,24.6153846" id="Line-2"></path>
                        </g>
                        <path d="M80.8054322,12.6179343 L85.4991451,26.6990732 L76.1117192,26.6990732 L80.8054322,12.6179343 Z" id="Triangle" fill="#263238" fill-rule="evenodd" transform="translate(80.805432, 20.199073) scale(-1, 1) rotate(-143.000000) translate(-80.805432, -20.199073) "></path>
                    </g>
                    <text id="Controls" transform="translate(226.000000, 6.500000) scale(-1, 1) translate(-226.000000, -6.500000) " font-family="Roboto-Regular, Roboto" font-size="11" font-weight="normal" fill="#263238">
                        <tspan x="205" y="10">Controls</tspan>
                    </text>
                </g>
                <g id="Group-7-Copy" transform="translate(220.000000, 100.000000) scale(-1, 1) translate(-220.000000, -100.000000) translate(0.000000, 64.000000)">
                    <g id="Group-5" transform="translate(96.000000, 56.000000) scale(-1, 1) translate(-96.000000, -56.000000) translate(0.000000, 40.000000)">
                        <rect id="Rectangle-Copy-3" stroke="#3949AB" fill-opacity="0.5" fill="#8C9EFF" x="0.5" y="0.5" width="191" height="31" rx="4"></rect>
                        <text id="DataViewController" font-family="FiraCode-Retina, Fira Code" font-size="12" font-weight="500" fill="#263238">
                            <tspan x="8" y="19">DataViewController</tspan>
                        </text>
                    </g>
                    <g id="Group-6" transform="translate(348.000000, 56.000000) scale(-1, 1) translate(-348.000000, -56.000000) translate(256.000000, 40.000000)">
                        <rect id="Rectangle-Copy-4" stroke="#3949AB" fill="#C5CAE9" x="0.5" y="0.5" width="183" height="31" rx="4"></rect>
                        <text id="DataView" font-family="FiraCode-Retina, Fira Code" font-size="12" font-weight="500" fill="#263238">
                            <tspan x="8" y="19">DataView</tspan>
                        </text>
                    </g>
                    <g id="Curved-Arrow" transform="translate(183.000000, 16.000000)" stroke="#263238" stroke-linecap="round" stroke-linejoin="round">
                        <g id="Curved-Line">
                            <path d="M0,25 C8.64722102,8.33333333 22.7501622,-2.83984308e-15 42.3088235,-3.55271368e-15 C61.8674849,-3.55271368e-15 75.7645437,8.20512821 84,24.6153846" id="Line-2"></path>
                        </g>
                        <path d="M80.8054322,12.6179343 L85.4991451,26.6990732 L76.1117192,26.6990732 L80.8054322,12.6179343 Z" id="Triangle" fill="#263238" fill-rule="evenodd" transform="translate(80.805432, 20.199073) scale(-1, 1) rotate(-143.000000) translate(-80.805432, -20.199073) "></path>
                    </g>
                    <text id="Controls" transform="translate(226.000000, 6.500000) scale(-1, 1) translate(-226.000000, -6.500000) " font-family="Roboto-Regular, Roboto" font-size="11" font-weight="normal" fill="#263238">
                        <tspan x="205" y="10">Controls</tspan>
                    </text>
                </g>
            </g>
            <g id="Curved-Arrow" transform="translate(515.500000, 413.500000) rotate(-270.000000) translate(-515.500000, -413.500000) translate(491.000000, 405.000000)" stroke="#263238" stroke-linecap="round" stroke-linejoin="round">
                <g id="Curved-Line">
                    <path d="M0,17 C5.04421226,5.66666667 13.2709279,-3.06796167e-15 24.6801471,-3.55271368e-15 C36.0893662,-3.55271368e-15 44.1959838,5.57948718 49,16.7384615" id="Line-2"></path>
                </g>
                <path d="M44.8054322,4.61793432 L49.4991451,18.6990732 L40.1117192,18.6990732 L44.8054322,4.61793432 Z" id="Triangle" fill="#263238" fill-rule="evenodd" transform="translate(44.805432, 12.199073) scale(-1, 1) rotate(-143.000000) translate(-44.805432, -12.199073) "></path>
            </g>
            <g id="Curved-Line" transform="translate(523.500000, 381.500000) rotate(-270.000000) translate(-523.500000, -381.500000) translate(467.000000, 365.000000)" stroke="#263238" stroke-linecap="round" stroke-linejoin="round">
                <path d="M0,33 C11.6325711,11 30.6043849,-2.61172449e-15 56.9154412,-3.55271368e-15 C83.2264975,-3.55271368e-15 101.92135,10.8307692 113,32.4923077" id="Line-2"></path>
            </g>
            <text id="Reads" transform="translate(537.379165, 345.673394) rotate(-300.000000) translate(-537.379165, -345.673394) " font-family="Roboto-Regular, Roboto" font-size="11" font-weight="normal" fill="#263238">
                <tspan x="521.879165" y="349.173394">Reads</tspan>
            </text>
            <g id="RAM-Data-(App-State)" transform="translate(316.000000, 429.000000)">
                <rect id="Rectangle-Copy-3" stroke="#43A047" fill="#C8E6C9" x="0.5" y="0.5" width="191" height="159" rx="4"></rect>
                <text font-family="FiraCode-Retina, Fira Code" font-size="12" font-weight="500" fill="#263238">
                    <tspan x="8" y="19">RAM Data</tspan>
                    <tspan x="8" y="33">(App State)</tspan>
                </text>
            </g>
            <g id="Curved-Arrow" transform="translate(309.000000, 605.500000) rotate(-90.000000) translate(-309.000000, -605.500000) translate(285.000000, 597.000000)" stroke="#263238" stroke-linecap="round" stroke-linejoin="round">
                <g id="Curved-Line">
                    <path d="M0,17 C4.94126915,5.66666667 13.0000927,-3.06796167e-15 24.1764706,-3.55271368e-15 C35.3528485,-3.55271368e-15 43.294025,5.57948718 48,16.7384615" id="Line-2"></path>
                </g>
                <path d="M43.8054322,4.61793432 L48.4991451,18.6990732 L39.1117192,18.6990732 L43.8054322,4.61793432 Z" id="Triangle" fill="#263238" fill-rule="evenodd" transform="translate(43.805432, 12.199073) scale(-1, 1) rotate(-143.000000) translate(-43.805432, -12.199073) "></path>
            </g>
            <text id="Writes" transform="translate(292.684546, 598.001788) rotate(-78.000000) translate(-292.684546, -598.001788) " font-family="Roboto-Regular, Roboto" font-size="11" font-weight="normal" fill="#263238">
                <tspan x="276.684546" y="601.501788">Writes</tspan>
            </text>
            <g id="Data-Accessor" transform="translate(316.000000, 621.000000)">
                <rect id="Rectangle-Copy-3" stroke="#D81B60" fill="#F8BBD0" x="0.5" y="0.5" width="191" height="63" rx="4"></rect>
                <text font-family="FiraCode-Retina, Fira Code" font-size="12" font-weight="500" fill="#263238">
                    <tspan x="8" y="19">Data Accessor</tspan>
                </text>
            </g>
            <g id="Archived-Data" transform="translate(252.000000, 749.000000)">
                <rect id="Rectangle-Copy-3" stroke="url(#linearGradient-2)" fill="url(#linearGradient-1)" x="0.5" y="0.5" width="127" height="127" rx="4"></rect>
                <text font-family="FiraCode-Retina, Fira Code" font-size="12" font-weight="500" fill="#263238">
                    <tspan x="8" y="19">Archived Data</tspan>
                </text>
            </g>
            <g id="Network-Data" transform="translate(436.000000, 749.000000)">
                <rect id="Rectangle-Copy-3" stroke="url(#linearGradient-4)" fill="url(#linearGradient-3)" x="0.5" y="0.5" width="127" height="127" rx="4"></rect>
                <text font-family="FiraCode-Retina, Fira Code" font-size="12" font-weight="500" fill="#263238">
                    <tspan x="8" y="19">Network Data</tspan>
                </text>
            </g>
            <text id="Reads" transform="translate(363.000000, 712.000000) rotate(-90.000000) translate(-363.000000, -712.000000) " font-family="Roboto-Regular, Roboto" font-size="11" font-weight="normal" fill="#263238">
                <tspan x="347.5" y="715.5">Reads</tspan>
            </text>
            <text id="Reads" transform="translate(436.000000, 712.000000) rotate(-90.000000) translate(-436.000000, -712.000000) " font-family="Roboto-Regular, Roboto" font-size="11" font-weight="normal" fill="#263238">
                <tspan x="420.5" y="715.5">Reads</tspan>
            </text>
            <g id="Straight-Arrow" transform="translate(444.000000, 716.500000) rotate(-270.000000) translate(-444.000000, -716.500000) translate(410.500000, 712.500000)" stroke="#263238" stroke-linecap="round" stroke-linejoin="round">
                <g id="Group-9">
                    <path d="M0,4 L66.1066667,4" id="Line"></path>
                    <g id="Arrowhead" transform="translate(55.000000, 0.000000)" fill="#263238">
                        <path d="M-1.58113883,4 L12.5,-0.693712943 L12.5,8.69371294 L-1.58113883,4 Z" id="Triangle-Copy" transform="translate(6.000000, 4.000000) scale(-1, 1) rotate(-360.000000) translate(-6.000000, -4.000000) "></path>
                    </g>
                </g>
            </g>
            <g id="Straight-Arrow" transform="translate(372.000000, 716.500000) rotate(-270.000000) translate(-372.000000, -716.500000) translate(338.500000, 712.500000)" stroke="#263238" stroke-linecap="round" stroke-linejoin="round">
                <g id="Group-9">
                    <path d="M0,4 L66.1066667,4" id="Line"></path>
                    <g id="Arrowhead" transform="translate(55.000000, 0.000000)" fill="#263238">
                        <path d="M-1.58113883,4 L12.5,-0.693712943 L12.5,8.69371294 L-1.58113883,4 Z" id="Triangle-Copy" transform="translate(6.000000, 4.000000) scale(-1, 1) rotate(-360.000000) translate(-6.000000, -4.000000) "></path>
                    </g>
                </g>
            </g>
        </g>
        <g id="Title" transform="translate(62.000000, 450.000000)" font-family="Roboto-Light, Roboto" font-size="48" font-weight="300">
            <text id="Blue-Husky-Software" stroke="#FFFFFF" stroke-width="2" fill="#FFFFFF">
                <tspan x="102.664062" y="45">Blue</tspan>
                <tspan x="63.0546875" y="102">Husky</tspan>
                <tspan x="4.9765625" y="159">Software</tspan>
                <tspan x="0.6171875" y="216">Structure</tspan>
                <tspan x="91.2734375" y="273">2.0.0</tspan>
            </text>
            <text id="Blue-Husky-Software-Copy" fill="#263238">
                <tspan x="102.664062" y="45">Blue</tspan>
                <tspan x="63.0546875" y="102">Husky</tspan>
                <tspan x="4.9765625" y="159">Software</tspan>
                <tspan x="0.6171875" y="216">Structure</tspan>
                <tspan x="91.2734375" y="273">2.0.0</tspan>
            </text>
        </g>
    </g>
</svg>